<?xml version="1.0" encoding="utf-8"?>
<!-- Generator: Adobe Illustrator 21.0.0, SVG Export Plug-In . SVG Version: 6.00 Build 0)  -->
<svg version="1.1" id="Layer_1" xmlns="http://www.w3.org/2000/svg" xmlns:xlink="http://www.w3.org/1999/xlink" x="0px" y="0px"
	 viewBox="0 0 6103.8 1123.1" style="enable-background:new 0 0 6103.8 1123.1;" xml:space="preserve">
<style type="text/css">
	.st0{filter:url(#Adobe_OpacityMaskFilter);}
	.st1{clip-path:url(#SVGID_3_);}
	.st2{mask:url(#SVGID_1_);}
	.st3{fill:#716861;}
</style>
<defs>
	<filter id="Adobe_OpacityMaskFilter" filterUnits="userSpaceOnUse" x="0" y="0" width="6103.8" height="1123.1">
		<feColorMatrix  type="matrix" values="1 0 0 0 0  0 1 0 0 0  0 0 1 0 0  0 0 0 1 0"/>
	</filter>
</defs>
<mask maskUnits="userSpaceOnUse" x="0" y="0" width="6103.8" height="1123.1" id="SVGID_1_">
	<g class="st0">
		<g>
			<defs>
				<rect id="SVGID_2_" width="6103.8" height="1123.1"/>
			</defs>
			<clipPath id="SVGID_3_">
				<use xlink:href="#SVGID_2_"  style="overflow:visible;"/>
			</clipPath>
			<rect x="-90.5" y="-95.9" class="st1" width="6318" height="1219"/>
		</g>
	</g>
</mask>
<g class="st2">
	<g>
		<defs>
			<rect id="SVGID_4_" width="6103.8" height="1123.1"/>
		</defs>
		<clipPath id="SVGID_5_">
			<use xlink:href="#SVGID_4_"  style="overflow:visible;"/>
		</clipPath>
	</g>
</g>
<path class="st3" d="M2179.7,1254.7c3.1,15.8,5.8,31.7,8.6,47.6c2.8,15.9,5.5,31.9,8.6,47.9l9.8-1.9c-3.1-15.8-5.8-31.7-8.6-47.7
	c-2.8-15.9-5.5-31.9-8.6-47.9L2179.7,1254.7z M2172.1,1200.9c1.7,8.7,2.7,17.5,3.7,26.5c1,8.9,2.1,18.1,3.9,27.2l9.8-1.9
	c-1.7-8.7-2.7-17.5-3.8-26.5c-1-8.9-2.1-18.1-3.8-27.2L2172.1,1200.9z M2162.6,1152.5c3.2,16.2,6.4,32.3,9.5,48.5l9.8-1.9
	c-3.1-16.2-6.3-32.4-9.5-48.5L2162.6,1152.5z M2141.4,1074.9c7.1,26.5,16.1,51.4,21.2,77.5l9.8-1.9c-5.2-26.4-14.6-53-21.4-78.2
	L2141.4,1074.9z M2106.2,973.2c16,32.2,25.9,66.7,35.2,101.7l9.7-2.6c-9.4-35.1-19.4-70.5-35.9-103.6L2106.2,973.2z M2082.9,938.4
	c3.6,6.4,8.2,12.4,12.3,18c4.2,5.7,8.1,11.1,11,16.8l9-4.5c-3.3-6.7-7.7-12.7-11.9-18.4c-4.3-5.8-8.4-11.1-11.6-16.9L2082.9,938.4z
	 M2066.1,902.8c4.8,12.6,10.2,23.9,16.8,35.6l8.7-4.9c-6.4-11.3-11.6-22.2-16.2-34.2L2066.1,902.8z M2058.9,872.3
	c1.9,9.6,3.3,20.4,7.1,30.5l9.4-3.5c-3.4-9-4.7-18.5-6.7-28.9L2058.9,872.3z M2051.7,849.9c1.1,4.2,2.6,8.1,4,11.7
	c1.3,3.7,2.5,7.1,3.2,10.7l9.8-1.9c-0.9-4.5-2.3-8.5-3.6-12.2c-1.4-3.8-2.7-7.2-3.7-10.9L2051.7,849.9z M2037.5,804.9
	c5,15.4,10.2,29.6,14.3,44.9l9.7-2.6c-4.2-15.7-9.5-30.4-14.4-45.5L2037.5,804.9z M2026,775.7c1.7,5.3,3.8,10.3,5.9,15.1
	c2.1,4.8,4.1,9.4,5.6,14.1l9.5-3.1c-1.7-5.3-3.9-10.3-5.9-15c-2.1-4.8-4-9.3-5.5-14.1L2026,775.7z M2021.1,755.8
	c1.1,2.9,1.7,5.9,2.4,9.3c0.7,3.3,1.4,7,2.5,10.6l9.5-3c-0.9-3-1.5-6.1-2.2-9.6c-0.7-3.4-1.5-7.1-2.8-10.8L2021.1,755.8z
	 M2011.2,721.4c2.2,5,3.6,10.4,5,16.3c1.4,5.8,2.8,12.1,4.9,18l9.4-3.4c-1.9-5.3-3.2-10.9-4.6-17c-1.4-5.9-3-12.1-5.6-18
	L2011.2,721.4z M1978.3,634.5c9.8,29.4,20.5,58.4,32.9,86.8l9.2-4c-12.3-28.1-22.9-56.8-32.6-86L1978.3,634.5z M1962.1,553.5
	c2.6,13.1,4.4,26.6,6.8,40.4c2.3,13.7,5.1,27.5,9.4,40.6l9.5-3.2c-4.1-12.3-6.8-25.5-9.1-39.1c-2.3-13.4-4.2-27.4-6.8-40.7
	L1962.1,553.5z M2196.9,1350.2c0.5,2.7,3.2,4.5,5.9,3.9c2.7-0.5,4.5-3.2,3.9-5.9L2196.9,1350.2z M2177,1200l-4.9,0.9L2177,1200z
	 M2146.2,1073.7l4.8-1.3L2146.2,1073.7z M2110.6,971l4.5-2.2L2110.6,971z M2087.2,935.9l4.4-2.5L2087.2,935.9z M2070.7,901l4.7-1.8
	L2070.7,901z M2056.6,848.6l4.8-1.3L2056.6,848.6z M2042.2,803.4l4.8-1.6L2042.2,803.4z M2030.8,774.2l4.8-1.5L2030.8,774.2z
	 M2025.8,754.1l4.7-1.7L2025.8,754.1z M2015.8,719.4l-4.6,2L2015.8,719.4z M1983,633l4.7-1.6L1983,633z M1971.9,551.6
	c-0.5-2.7-3.2-4.5-5.9-3.9s-4.5,3.2-3.9,5.9L1971.9,551.6z"/>
<path class="st3" d="M1914.5,341.1c-12.6,54-21,177,46.3,237.1C1967.4,588,2035.3,466.5,1914.5,341.1z"/>
<path class="st3" d="M1845.1,559.1c31.9,30.8,145.4,75.2,145.4,75.2s14.5,31.8,24.3,54.8c-4-15.2,2.2-60.7,53.4-153.3
	c17.4,54,36.2,173.4-27.5,219.1c-23.4,16.8-85.7,1.9-114.2-53.6C1902,653.3,1805.2,520.7,1845.1,559.1z"/>
<path class="st3" d="M1877.5,756.8c137.9,56.3,178.8,84,181.8,90.9c0.9,6.3,2,13,3.6,20.6c12.1-40.3,25.4-72.5,60.4-116.4
	c37.3-46.7,78-112.4,78-112.4s10.4,214.5-131.4,257c-14.4,6.5-54.3,9.3-98.5-31.7C1929.5,797.3,1896.1,767.3,1877.5,756.8
	c-3.7-1.5-7.5-3.1-11.4-4.6C1868.9,752.6,1872.7,754,1877.5,756.8z"/>
<path class="st3" d="M1996,948c62.2,11.5,102.9,45.9,115.4,61.7c4.1,9.6,24.4,30,24.4,30c4.6-27.7,16-71.1,39.7-101.7
	c29.6-38.2,41.6-61.8,48.8-86.3c7.2-24.5,80.3,236.9-76,250.8c-48.4,13.2-85.1,0-146.3-48.2c-49-38.6-95.3-137.2-112.3-181.7
	C1899.2,892.8,1933.8,936.4,1996,948z"/>
<path class="st3" d="M2008,1141.8c67.2,6.9,144.3,64.7,174.5,92.7c2.8,17,4.7,32.7,5.9,47c-128.9,29.8-71-34.3-170.6-89.8
	c-79.7-44.4-111.6-103.8-117.5-127.9C1908.1,1087,1940.7,1135,2008,1141.8z"/>
<path class="st3" d="M1854.4,277.9c-144.2,311.6-125.8,376.8-206.2,646.1c-62.9,210.7-137,300.9-197.3,305.4
	c120.9-656.2,335.3-965.4,427.4-1038C1881,207.7,1874,235.7,1854.4,277.9z"/>
<path class="st3" d="M1379.6,695c69.5-232.8,481.6-607.7,498.7-503.7c-12.2,7.1-26.6,18.1-42.7,33.4
	c-108,102.3-292.7,395.7-413.2,1000.1C1339.1,1190.5,1296.3,974,1379.6,695z"/>
<path class="st3" d="M1032,507.6c66.1,300.2,24.9,352.2,32,601.8c5.5,195.3,61.2,289.3,128.2,306.6
	c67.8-591.5-78.5-905.3-160.1-988.2C1023.8,441.2,1023,466.9,1032,507.6z"/>
<path class="st3" d="M1439.5,972.1c-6.1-215.7-355.7-630-407.6-544.3c11.6,8.9,24.5,21.5,37.9,38.2c90.4,112,208,405.6,155.9,952.4
	C1330.8,1407.4,1446.8,1230.6,1439.5,972.1z"/>
<path class="st3" d="M1764.2,1011c5.8,20,22.4,97.5,41.5,244.8l10.9-1.4c-19.1-147.4-35.8-225.6-41.8-246.5L1764.2,1011z
	 M1853.7,917.6c-16,38.8-37.5,102.3-50.3,166.5c-6.4,32.1-10.6,64.6-10.8,94.4c-0.2,29.7,3.6,57.1,13.6,79l10-4.6
	c-9.1-19.8-12.8-45.4-12.6-74.3c0.2-28.9,4.3-60.6,10.6-92.3c12.6-63.4,33.9-126.1,49.7-164.4L1853.7,917.6z M1669.1,953.5
	c16.3-2.3,40.5-2,60.4,5.9c9.9,3.9,18.4,9.6,24.5,17.6c6,7.9,9.9,18.4,9.9,32.4h11c0-16.2-4.5-29.1-12.2-39.1
	c-7.6-9.9-18-16.7-29.2-21.2c-22.3-8.9-48.6-9-66-6.6L1669.1,953.5z M1982,763.3c-29.9,10.4-76.7,31.9-120.4,62.7
	c-43.6,30.8-84.8,71.3-102.3,120.1l10.3,3.7c16.5-45.7,55.5-84.6,98.3-114.9c42.7-30.2,88.6-51.2,117.6-61.3L1982,763.3z
	 M1759,948.2c0.8,19.3,2.4,39.9,5.1,61.8l10.9-1.3c-2.6-21.7-4.3-42-5-61L1759,948.2z M1758.4,919.7c0,9.2,0.2,18.7,0.6,28.6l11-0.5
	c-0.4-9.7-0.6-19.1-0.5-28.1L1758.4,919.7z M1615.5,849.5c18.2-2.3,47.6-1.4,75.6,8.8c27.9,10.1,54.3,29.3,67.7,63.3l10.2-4
	c-14.9-37.7-44.1-58.7-74.2-69.6c-30-10.9-61.1-11.8-80.7-9.4L1615.5,849.5z M1832.2,702.4c-14.6,8.7-32.9,29.5-47.6,64.5
	c-14.7,35.2-26,85.2-26.2,152.7l11,0c0.2-66.4,11.3-114.9,25.3-148.5c14.2-33.8,31.2-52.3,43.1-59.3L1832.2,702.4z M1811.2,1255.1
	l-5,2.3l10.5-3L1811.2,1255.1z M1763.9,919.7l5.5,0L1763.9,919.7z M1769.5,1009.4l-5.5,0.7l0.1,0.4l0.1,0.4L1769.5,1009.4z"/>
<path class="st3" d="M946.9,1124.4c7.5,55.9,24.7,99.9,63.8,133.6l5.2-6.1c-37.1-32-53.7-73.8-61.1-128.6L946.9,1124.4z M927.3,995
	c6.8,43.1,13.7,86.2,19.5,129.5l7.9-1.1c-5.8-43.4-12.8-86.6-19.6-129.6L927.3,995z M884.2,817.6c14.3,59.4,33.6,116.9,43.1,177.4
	l7.9-1.2c-9.5-60.9-29.1-119.6-43.2-178.1L884.2,817.6z M860.5,724.5c10.2,30,16.1,61.5,23.7,93.1l7.8-1.9
	c-7.5-31.1-13.6-63.4-23.9-93.8L860.5,724.5z M828.3,637.4c10.6,29.4,22.2,57.6,32.2,87l7.6-2.6c-10-29.4-21.8-58.3-32.3-87.2
	L828.3,637.4z M760.8,485.7c30.4,46.8,47.7,96.9,67.5,151.7l7.5-2.7c-19.7-54.6-37.3-105.6-68.3-153.3L760.8,485.7z M678.8,372.5
	c16.1,14.2,30.4,32.8,43.8,52.9c13.5,20.2,25.6,41,38.2,60.4l6.7-4.4c-12.2-18.8-24.9-40.5-38.3-60.5
	c-13.5-20.2-28.2-39.5-45.1-54.4L678.8,372.5z M635.6,349.8c16.3,2.7,29.6,10.7,43.2,22.6l5.3-6c-14.1-12.5-28.8-21.5-47.2-24.5
	L635.6,349.8z M1010.6,1258.1c1.7,1.4,4.2,1.3,5.6-0.4c1.4-1.7,1.3-4.2-0.4-5.6L1010.6,1258.1z M950.8,1123.9l4-0.5L950.8,1123.9z
	 M931.3,994.4l4-0.6L931.3,994.4z M888.1,816.6l3.9-0.9L888.1,816.6z M864.3,723.2l3.8-1.3L864.3,723.2z M832.1,636.1l-3.8,1.4
	L832.1,636.1z M764.2,483.6l-3.4,2.2L764.2,483.6z M681.4,369.5l2.6-3L681.4,369.5z M636.9,341.9c-2.2-0.4-4.2,1.1-4.6,3.3
	c-0.4,2.2,1.1,4.2,3.3,4.6L636.9,341.9z"/>
<path class="st3" d="M924.2,960.6c7.9-37.1,32.1-111.6,85.4-203.4c12.3,92.1,12,264.3-86.8,218.9c-15.6,49.3-140.4-29.8-159.3-87.1
	c-17.9-54.4-77.3-108.6-104.8-128.9c163.5,27.5,241.6,127.7,260.2,174.4C922,944.7,923.8,953.4,924.2,960.6z"/>
<path class="st3" d="M870.7,738.1c1.7-35.4,16.8-124.5,64-197.5c21.3,65.7,42.7,209.3-41.7,257.8l-6-16.1
	c-33.3,44.7-103-5.2-123.2-58.9c-52.4-139.4-85.1-203.5-116.3-220.1c-2.4-1-4.9-2-7.3-3.1c2.4,0.7,4.9,1.8,7.3,3.1
	C808.8,571.8,851.8,661,853,697.5L870.7,738.1z"/>
<path class="st3" d="M841.5,319.1c-34.2,64.6-47.5,161.5-49.8,201.9l22.2,61.6C879.1,563.1,859.5,398.8,841.5,319.1z"/>
<path class="st3" d="M754.8,474c-9.5-46.3-63.1-145.1-201.6-170.2C596.2,357.3,696.8,466.1,754.8,474z"/>
<path class="st3" d="M31.7,667.6c-16.7,17.3-19.5,41.8-12.1,72.5c31.9-26.5,89.7-38.3,173.2-11.6c29.7-10,67.1-47.4-20.8-116.8
	C112.9,613.7,64.9,633.2,31.7,667.6z"/>
<path class="st3" d="M172.1,611.7c84.7,44.8,75.7,106.4,60.6,131.7C297,770.7,374.1,818.8,464.1,896c56.8-9.7,134.5-62.4-9.2-196
	C346.4,636.5,249.6,609.1,172.1,611.7z"/>
<path class="st3" d="M367.4,848.5C186.3,706,70.2,702,19.6,740.1c8.5,35.3,30.4,78.8,60.5,129.1
	C300.7,953.7,363.6,890.6,367.4,848.5z"/>
<path class="st3" d="M392.8,869c-63,112.6-234.7,47.1-312.7,0.2c43.2,72.4,103.1,158.8,163.7,255.1c106.9,33.6,317.4,59,303.8-108
	C491.8,957,440.2,908.4,392.8,869z"/>
<path class="st3" d="M664.2,857.2C591.3,790.5,521,738.5,454.9,699.9c68.3,48.7,171.8,161.4,39.6,222.8
	c53,47.8,110.1,105.4,171.5,174.2c64.4,4.4,163.3-29,43.1-197.6C694.2,885,679.2,870.9,664.2,857.2z"/>
<path class="st3" d="M691,1125.4c108.3,124.8,229.2,284.1,362.6,486.1c90.2-189.8-115.2-489.9-344.5-712.2
	C859.4,1070.5,759.7,1121.4,691,1125.4z"/>
<path class="st3" d="M572.4,1043.2c4.9,173.1-217.1,126.2-328.7,81.1c46.4,73.7,93.3,153.2,133.4,236.6
	c138.5,70.2,422.3,168.2,448.7-0.6C733.8,1232,649.4,1127.6,572.4,1043.2z"/>
<path class="st3" d="M4635.5,486.4c59.2-45.3,107.1-95.5,155.4-151l-10.6-9.2c-48.1,55.2-95.3,104.6-153.4,149L4635.5,486.4z
	 M4478.4,603.3c23.2-22.7,49.2-41.8,76.1-60.4c26.8-18.4,54.7-36.5,80.9-56.6l-8.5-11.1c-25.9,19.8-53.1,37.4-80.4,56.1
	c-27.1,18.7-53.9,38.3-78,61.9L4478.4,603.3z M4399.6,742.1c1.8-52.1,41-101.7,78.8-138.7l-9.8-10c-38,37.2-81,90.1-83,148.2
	L4399.6,742.1z M4405.5,845.4c-7.7-34-7.1-67.7-5.9-103.3l-14-0.5c-1.2,35.6-1.9,71,6.2,106.9L4405.5,845.4z M4425.1,1058.5
	c11.3-34.8,9.8-72.4,3.9-108.9c-5.9-36.3-16.4-72.8-23.5-104.2l-13.7,3.1c7.4,32.6,17.5,67.6,23.3,103.4
	c5.8,35.6,6.9,70.7-3.4,102.4L4425.1,1058.5z M4400.2,1117.5c9.1-8.9,13.7-19.1,16.8-29.2c1.6-5,2.8-10.2,4-15.1
	c1.2-5,2.5-9.9,4-14.7l-13.3-4.3c-1.7,5.4-3.1,10.7-4.3,15.7c-1.3,5.1-2.4,9.8-3.8,14.3c-2.8,8.9-6.5,16.7-13.3,23.4L4400.2,1117.5z
	 M4325.8,1162.4c15.9,0.2,30.2-7,42.3-15.9c12.1-8.9,23-20.2,32-29l-9.8-10c-9.4,9.2-19.4,19.6-30.5,27.7
	c-11.1,8.1-22.3,13.3-33.9,13.1L4325.8,1162.4z M4790.9,335.4c2.5-2.9,2.2-7.3-0.7-9.9s-7.3-2.2-9.9,0.7L4790.9,335.4z
	 M4631.2,480.9l-4.3-5.6L4631.2,480.9z M4473.5,598.3l4.9,5L4473.5,598.3z M4392.6,741.8l7,0.2L4392.6,741.8z M4398.7,846.9
	l-6.8,1.5L4398.7,846.9z M4418.4,1056.4l-6.7-2.2L4418.4,1056.4z M4395.3,1112.5l4.9,5L4395.3,1112.5z M4326,1148.4
	c-3.9-0.1-7,3-7.1,6.9c-0.1,3.9,3,7,6.9,7.1L4326,1148.4z"/>
<path class="st3" d="M4671.1,430.9c0,0-4.1-171.4-101.4,91.6c-17.9-11.1-1.6-70,36.4-131.7c38.1-61.7,83.5-102.7,101.4-91.6
	C4725.5,310.3,4671.1,430.9,4671.1,430.9z"/>
<path class="st3" d="M4516.9,556.9c0,0-55-232.6-79.4,75.2c-20.2-5.9-28.4-70.4-8.1-140s53.1-121.2,73.3-115.3
	C4522.9,382.8,4537.1,487.3,4516.9,556.9z"/>
<path class="st3" d="M4782.9,341.9c5.1-69.8-29-0.5-38.7,51c-13.8-6.8-10.7-41.6,7-77.9c17.7-36.3,43.3-60.2,57.1-53.5
	C4822.2,268.4,4800.6,305.7,4782.9,341.9z"/>
<path class="st3" d="M4822.5,404.1c-48.4,5.5-88.9-1.5-90.5-15.6c226.8,3.3,9-54.2,57.3-59.7c48.4-5.5,116.2,25.8,117.8,39.9
	C4908.8,382.7,4870.9,398.6,4822.5,404.1z"/>
<path class="st3" d="M4691.6,522.8c-65.4,13.3-121.6,8.7-125.5-10.4c-3.9-19,185,27.3,111.4-58.6c65.4-13.3,121.6-8.7,125.5,10.4
	C4806.9,483.2,4757,509.5,4691.6,522.8z"/>
<path class="st3" d="M4564.8,622.8c-65.4,13.3-114.5,17.3-118.4-1.7c203.1-27,90.1-72.7,90.1-72.7c65.4-13.3,135.8-3.2,139.7,15.8
	C4680.1,583.2,4630.2,609.5,4564.8,622.8z"/>
<path class="st3" d="M4480.4,758.9c-41.4,28.9-83.9,39.4-95.1,23.5c179.3-79.4,0.9-62.9,0.9-62.9c41.4-28.9,137.8-57.7,148.9-41.8
	C4546.3,693.7,4521.8,730,4480.4,758.9z"/>
<path class="st3" d="M4332.3,643.6c-10.2-72.8-2.8-133.9,16.4-136.6c19.2-2.7,64.4,83.5,74.6,156.3c0,0-113-175.9-37.7,107.2
	C4366.3,773.2,4342.5,716.4,4332.3,643.6z"/>
<path class="st3" d="M4333.9,874.9c-35.6-64.3-50.6-124-33.6-133.4c17-9.4,59.6,35.1,95.2,99.4c0,0-144.9-79.2,33.6,133.4
	C4412,983.7,4369.4,939.2,4333.9,874.9z"/>
<path class="st3" d="M4410.4,874.6c31.9-60.7,119.4-87.3,131.5-81c12,6.3-4,60.7-35.9,121.4s-67.5,104.9-79.5,98.5
	C4570.2,794,4410.4,874.6,4410.4,874.6z"/>
<path class="st3" d="M3975.8,1106.5c-6.3,34.7-26.2,167.4-54.7,419.8l-11.9-1.3c28.5-252.4,48.4-385.5,54.8-420.6L3975.8,1106.5z
	 M3919.3,946.8c7.8,67.1,17.3,176.5,20.3,286.8c3,110.1-0.4,222-18.7,293.5l-11.6-3c17.8-69.7,21.3-180,18.3-290.2
	c-3-109.9-12.4-219-20.2-285.8L3919.3,946.8z M4047.8,1009.8c-10.5-4.1-26.6-4.7-40.9,7.1c-14.4,12-28.1,37.7-31.1,88.9l-12-0.7
	c3-52.7,17.3-82.4,35.4-97.4c18.3-15.2,39.2-14.5,53-9.1L4047.8,1009.8z M3840.8,678.1c42.1,38.5,129,156,144.8,321.4l-11.9,1.1
	c-15.4-162-100.8-276.9-141-313.7L3840.8,678.1z M3985.6,1000.6c-2.5,32.9-5.7,68.1-9.8,105.5l-11.9-1.3
	c4.1-37.3,7.3-72.3,9.8-105.1L3985.6,1000.6z M3988.9,951.8c-0.9,15.7-1.9,32-3.2,48.8l-12-0.9c1.3-16.7,2.3-32.9,3.2-48.5
	L3988.9,951.8z M4097.5,833.6c-11.7-4.2-31.8-4.2-52.5,11.5c-20.8,15.7-42.6,47.5-56.3,107.8l-11.7-2.7
	c14.1-61.9,37-96.7,60.7-114.7c23.9-18,48.2-18.7,63.8-13.2L4097.5,833.6z M3956.9,580.1c9.7,15.3,20.8,50.9,28,110.8
	c7.2,60.2,10.5,145.5,4,260.9l-12-0.7c6.5-114.8,3.1-199.4-4-258.8c-7.1-59.6-18.1-93-26.2-105.8L3956.9,580.1z M3915.1,1525.6
	l5.8,1.5l-11.8-2.2L3915.1,1525.6z M3982.9,951.5l-6-0.3L3982.9,951.5z M3969.9,1105.4l6,0.7l0,0.2l0,0.2L3969.9,1105.4z"/>
<path class="st3" d="M4999.1,522.3c-150.8,292.9-118.6,358.5-190.9,615.4c-56.5,201.1-142.6,283.1-221.3,282.2
	c77.6-632.8,320.8-917.3,432.8-980.4C5025.3,455.8,5019.5,482.7,4999.1,522.3z"/>
<path class="st3" d="M4603.3,797.8c114.9-207.9,381-461.8,416.4-358.3c-15.2,5.9-32.7,15.5-51.9,29
	c-217.1,191.9-330.3,426.7-418.9,944.5C4435.4,1372.2,4469.2,1040.5,4603.3,797.8z"/>
<path class="st3" d="M4147.2,1147c0,10.5,0.2,21,0.5,31.6c0.2,10.6,0.5,21.3,0.5,32h-15c0-10.5-0.2-21-0.5-31.6
	c-0.2-10.6-0.5-21.3-0.5-32H4147.2z M4145.4,1111.4c0,5.6,0.5,11.3,0.9,17.2c0.5,5.9,0.9,12,0.9,18.3h-15c0-5.6-0.4-11.2-0.9-17.2
	c-0.5-5.8-0.9-12-1-18.3L4145.4,1111.4z M4145.4,1079.1c0,10.8-0.1,21.6,0,32.3l-15,0.1c-0.1-10.8,0-21.7,0-32.4H4145.4z
	 M4149.3,1026.9c-1.3,18.4-3.9,35-3.9,52.2h-15c0-17.8,2.8-36.7,3.9-53.3L4149.3,1026.9z M4159,957.8c-6.1,22.2-8.1,45.3-9.7,69
	l-15-1c1.6-23.7,3.7-48.1,10.2-72L4159,957.8z M4169.5,932.7c-1.6,4.9-3.9,9.6-5.9,13.6c-2,4.2-3.7,7.8-4.7,11.5l-14.5-4
	c1.4-5.1,3.6-9.8,5.6-14c2.1-4.3,3.9-8,5.2-11.9L4169.5,932.7z M4176,907.1c-1.5,8.9-3.7,17.1-6.5,25.7l-14.2-4.7
	c2.6-7.9,4.6-15.3,5.9-23.4L4176,907.1z M4176.9,885.9c0,6.1,0.4,13.8-0.8,21.2l-14.8-2.5c1-5.8,0.6-11.4,0.6-18.7H4176.9z
	 M4178.6,870.8c-0.2,3.1-0.7,6-1.1,8.4c-0.4,2.5-0.7,4.5-0.7,6.6h-15c0-3.3,0.4-6.4,0.9-9c0.4-2.7,0.8-4.8,1-7.1L4178.6,870.8z
	 M4182.1,840.4c-1.3,10.7-2.8,20.3-3.5,30.5l-15-1c0.7-10.8,2.3-21.2,3.6-31.3L4182.1,840.4z M4185.9,820.1
	c-0.4,3.9-1.2,7.6-1.9,10.9c-0.7,3.4-1.4,6.4-1.8,9.4l-14.9-1.8c0.5-3.8,1.3-7.5,2-10.8c0.7-3.4,1.4-6.3,1.7-9.3L4185.9,820.1z
	 M4186.5,806.8c-0.3,1.7-0.3,3.4-0.3,5.7c0,2.1,0,4.8-0.3,7.6l-14.9-1.6c0.2-1.8,0.2-3.6,0.2-6c0-2.3,0.1-5,0.5-7.9L4186.5,806.8z
	 M4188.5,783.7c-0.7,3.1-0.9,6.4-1.1,10.4c-0.2,3.8-0.3,8.3-1,12.7l-14.8-2.3c0.5-3.4,0.6-6.8,0.8-11c0.2-4,0.4-8.5,1.4-13
	L4188.5,783.7z M4198.8,723.4c-2.6,20.2-5.9,40.3-10.3,60.4l-14.6-3.3c4.3-19.5,7.5-39.1,10.1-59L4198.8,723.4z M4199.1,668.7
	c0,8.7,0.5,17.3,0.7,26.7c0.2,9.2,0.2,18.7-1,27.9l-14.9-1.9c1-8.1,1.1-16.7,0.9-25.6c-0.2-8.7-0.7-18.2-0.7-27.1H4199.1z
	 M4148.1,1210.6c0,4.1-3.4,7.5-7.5,7.5c-4.1,0-7.5-3.4-7.5-7.5H4148.1z M4137.9,1111.5l7.5,0L4137.9,1111.5z M4141.8,1026.3
	l-7.5-0.5L4141.8,1026.3z M4151.8,955.8l-7.2-2L4151.8,955.8z M4162.4,930.4l-7.1-2.4L4162.4,930.4z M4168.6,905.8l-7.4-1.3
	L4168.6,905.8z M4171.2,870.3l-7.5-0.5L4171.2,870.3z M4174.7,839.4l-7.4-0.9L4174.7,839.4z M4178.4,819.3l-7.5-0.8L4178.4,819.3z
	 M4179.1,805.7l-7.4-1.2L4179.1,805.7z M4181.2,782.1l7.3,1.6L4181.2,782.1z M4191.4,722.4l-7.4-1L4191.4,722.4z M4184.1,668.7
	c0-4.1,3.4-7.5,7.5-7.5s7.5,3.4,7.5,7.5H4184.1z"/>
<path class="st3" d="M4198.8,684.4c35.7-47.1,14.9-125.2,0-158.3C4137,621.8,4195.6,691.4,4198.8,684.4c-2.2,5.1-6.6,18.1-12.1,39.9
	c-2.7,10.6-5.6,23.4-8.7,38.3c0.6-10.3-9.1-38.8-53.6-91.8c-4.4,36.9-1.5,116.1,45.2,137.5c-4.3,30.3-1.3,42.3-0.3,61.9
	c0.2,4.1,0.3,8.6,0.3,13.7c-12.9-24.4-25.4-43.4-53.5-67.3c-29.9-25.4-64.3-62.5-64.3-62.5s20.2,139.3,116.8,148.8
	c-1.5,18.1-5.1,42.4-12.4,78c-1,4.8-2,9.7-3.2,14.9c-1.5,6.7-2.8,13.2-4,19.6c-6.4-17.3-24-55.9-43-72.6
	c-23.8-20.8-34.5-34.5-42.3-49.4s-21.9,162.5,80.4,151.8c-4.8,34.3-6.1,64.2-5.4,89.3c0.3,11.3,1.1,21.6,2.1,30.9
	c86.6,3,41.3-30.9,98.5-79.2c45.7-38.6,58.7-80.7,59.5-97c-2.2,15.9-17.1,50.8-59.5,63.7c-42.4,12.9-84.7,59.7-100.6,81.5
	c-0.7-25.1,0.6-55,5.4-89.3c32.8,2.4,54.7-10.7,88-49.4c26.7-30.9,44-100.2,49.4-130.9c-3.6,14.3-20.4,46.7-58.9,61.9
	c-38.6,15.2-60.4,42.5-66.5,54.2c7.4-35.6,10.9-59.9,12.4-78c10.1,2.4,36.1-0.8,59.4-32.7c18.5-48.7,36.2-72.2,46.8-81.3
	c2.2-1.4,4.4-2.9,6.7-4.4c-1.7,0.6-4,2-6.7,4.4c-81.7,53.5-104.5,76.5-105.5,81.3c-1-19.6-3.9-31.6,0.3-61.9
	c17.1,7.9,55.4-9.5,66.7-48.8c9.8-34.1,55.4-131.5,34.5-101.8c-16.7,23.8-63,54.4-84.1,66.7C4192.2,702.5,4196.6,689.5,4198.8,684.4
	C4198.8,684.4,4198.8,684.4,4198.8,684.4z"/>
<path class="st3" d="M4939.5,1160.7c153.9-189.7,240.4-412.8,304.2-645.1l-13.5-3.7c-63.6,231.5-149.4,452.4-301.6,640
	L4939.5,1160.7z M5243.7,515.6c1-3.7-1.2-7.6-4.9-8.6c-3.7-1-7.6,1.2-8.6,4.9L5243.7,515.6z M4928.6,1151.8c-2.4,3-2,7.4,1,9.8
	c3,2.4,7.4,2,9.8-1L4928.6,1151.8z"/>
<path class="st3" d="M5163.6,717.1c-22.8-62.7,27.9-232.6-115.6-309.6C5093,500,5073.4,711.6,5163.6,717.1z"/>
<path class="st3" d="M5159.7,780.8c34.5-63.2,80.2-173.4,210.3-191C5302.2,666.1,5210,794.6,5159.7,780.8z"/>
<path class="st3" d="M5095.2,898.1c16.8-30-17.1-191.7-97.4-280.5C4995.3,658.4,5016.9,893.3,5095.2,898.1z"/>
<path class="st3" d="M5225.5,513c34.5-63.2,73.7-197.8,203.8-215.3C5361.5,373.9,5275.8,526.8,5225.5,513z"/>
<path class="st3" d="M5056.5,985c34.5-63.2,152.2-151.6,282.2-169.2C5271,892.1,5106.9,998.8,5056.5,985z"/>
<path class="st3" d="M5000.7,1069.6c16.8-30,7.8-126.1-51.7-287C4946.6,823.3,4922.4,1064.8,5000.7,1069.6z"/>
<path class="st3" d="M5895.6,848.3c9.4,15.6,8,33.8-1.6,54.7c-18.9-25.2-58.2-44.6-121.2-41.1c-19.6-12.9-40.9-46.9,31.1-80.4
	C5845.6,794,5876.9,817.1,5895.6,848.3z"/>
<path class="st3" d="M5803.9,781.3c-66.3,16.3-68.5,62.5-61.3,83.6c-49.4,7.6-110.8,27.7-185.4,66.4
	c-38.9-17.7-86.6-70.5,33.9-139.8C5676.8,766.3,5749.3,764.8,5803.9,781.3z"/>
<path class="st3" d="M5632.3,915.4c148.3-68.7,231.2-49.6,261.7-12.5c-10.9,23.9-32.6,51.1-60.9,81.8
	C5664.9,1004,5629.2,946.5,5632.3,915.4z"/>
<path class="st3" d="M5611.5,925.4c28.9,93.2,159.8,78.3,221.6,59.3c-40.7,44.1-95.3,95.2-151.7,153.2
	c-80.5,4-233.2-17.4-200.2-135.4C5529,970.2,5572.4,944.9,5611.5,925.4z"/>
<path class="st3" d="M5420.7,865.5c61-34.3,118.2-58.6,170.4-74c-55.2,22.2-144.3,84-59.2,153.4c-44.2,24.5-92.8,55.2-145.9,93.4
	c-46.3-9-111.7-51.8-2.9-150.8C5395.6,879.9,5408.2,872.6,5420.7,865.5z"/>
<path class="st3" d="M5364.3,1054.2c-94.2,69.6-202.2,161.8-324.9,282.4c-37.4-154.1,150.1-331.9,343.8-449
	C5252.6,982.7,5316.2,1038.3,5364.3,1054.2z"/>
<path class="st3" d="M5459.8,1017.2c-27.6,124.1,136.2,132.2,221.6,120.7c-43.2,44.5-87.5,93-127.6,145.6
	c-108,24.5-322.8,41.6-318-85.3C5319,1123,5393.5,1063.6,5459.8,1017.2z"/>
<path class="st3" d="M5113.9,1455.6c-12.1-14.1-24.2-29.6-37.3-45.8c-9.3-11.5-16.9-23.2-23-35c54.7-56.3,106.4-106.7,155.2-151.9
	c-6.5,57.6,53.3,150.3,345,60.6c-36.2,47.5-89,115.3-142.5,160.4C5308,1531,5179.2,1531.5,5113.9,1455.6z"/>
<path class="st3" d="M5979.3,850.9c2.7,36.2,10.2,174.4,18.8,436.4l13-0.4c-8.6-262-16.2-400.4-18.9-436.9L5979.3,850.9z
	 M6019.7,690.3c-14.4,137-38.9,449-21.5,597.6l12.9-1.5c-17.1-146.9,7.2-457.4,21.6-594.7L6019.7,690.3z M5943.1,747
	c2.5-1.4,5.5-2,8.7-1c3.1,0.9,7.2,3.5,11.4,10c8.5,13.3,16.1,41.1,16.1,94.5h13c0-54-7.6-85-18.2-101.5
	c-5.4-8.4-11.8-13.5-18.7-15.5c-6.9-2-13.4-0.7-18.5,2.2L5943.1,747z M6077.5,418.4c-27.4,37.4-85,153.4-100.5,322.3l12.9,1.2
	c15.3-166.9,72.1-280.5,98-315.8L6077.5,418.4z M5977,741.4c0.4,34.1,1.1,70.5,2.3,109.3l13-0.4c-1.2-38.7-1.9-75-2.3-109
	L5977,741.4z M5976.8,690.9c0,16.2,0.1,33,0.3,50.5l13-0.1c-0.2-17.4-0.3-34.1-0.3-50.3L5976.8,690.9z M5918.6,562.4
	c2.7-1.3,6.4-1.9,10.9-0.2c4.6,1.7,10.3,5.7,16.3,14.3c12.2,17.3,24.6,51.6,31,115.1l12.9-1.3c-6.4-64.2-19.2-101.2-33.3-121.3
	c-7.1-10.1-14.8-16.2-22.5-19c-7.8-2.8-15.2-2.1-21.1,0.8L5918.6,562.4z M6009.5,310.5c-6.4,15-14.5,50.8-21,112
	c-6.6,61.5-11.6,149.2-11.7,268.4l13,0c0.1-118.9,5.1-206.1,11.6-267.1c6.5-61.2,14.5-95.2,20-108.2L6009.5,310.5z M6004.7,1287.1
	l-6.5,0.8l13-1L6004.7,1287.1z M5983.3,690.9l6.5,0L5983.3,690.9z M5985.8,850.5l-6.5,0.2l0,0.1l0,0.1L5985.8,850.5z"/>
<path class="st3" d="M5621.5,720.1c-3.7,13.8-14.2,67.8-26.4,170.8l-12.9-1.5c12.1-103.1,22.8-157.8,26.7-172.6L5621.5,720.1z
	 M5678.7,681.9c-10-1.5-24.8-1.3-36.7,3.9c-5.9,2.6-10.8,6.2-14.4,11.3c-3.5,5-5.9,11.9-5.9,21.3h-13c0-11.7,3-21.2,8.2-28.7
	c5.2-7.5,12.3-12.5,19.8-15.8c14.9-6.5,32.4-6.6,43.9-4.8L5678.7,681.9z M5481.1,543.9c19.3,7.4,49.4,22.5,77.4,44.3
	c28,21.7,54.7,50.5,66.1,85.2l-12.4,4.1c-10.3-31.3-34.7-58.1-61.7-79c-27-20.9-55.9-35.5-74.1-42.4L5481.1,543.9z M5624.9,675.7
	c-0.5,13.6-1.6,28-3.3,43.4l-12.9-1.4c1.7-15.1,2.7-29.2,3.2-42.5L5624.9,675.7z M5625.3,655.6c0,6.5-0.1,13.1-0.4,20.1l-13-0.5
	c0.3-6.8,0.4-13.3,0.3-19.6L5625.3,655.6z M5712.9,609.3c-11.1-1.5-29.2-0.9-46.5,6c-17.1,6.8-33.2,19.6-41.5,42.6l-12.2-4.4
	c9.8-27.2,29-42.4,48.9-50.3c19.7-7.8,40.1-8.5,53.1-6.8L5712.9,609.3z M5577.1,501.6c10,6.5,21.9,21.7,31.4,46.4
	c9.5,24.9,16.7,60.1,16.8,107.6l-13,0c-0.1-46.2-7.1-79.8-16-103c-8.9-23.4-19.5-35.7-26.3-40.2L5577.1,501.6z M5618.8,655.7l-6.5,0
	L5618.8,655.7z M5615.2,718.4l6.5,0.7l-0.1,0.5l-0.1,0.5L5615.2,718.4z"/>
</svg>
