<?xml version="1.0" encoding="utf-8"?>
<!-- Generator: Adobe Illustrator 21.0.0, SVG Export Plug-In . SVG Version: 6.00 Build 0)  -->
<svg version="1.1" id="Layer_1" xmlns="http://www.w3.org/2000/svg" xmlns:xlink="http://www.w3.org/1999/xlink" x="0px" y="0px"
	 viewBox="0 0 636.7 632.7" style="enable-background:new 0 0 636.7 632.7;" xml:space="preserve">
<style type="text/css">
	.st0{fill:#FFFFFF;}
</style>
<g>
	<path class="st0" d="M316.9,4.4c70.5,1.3,133.8,23.1,190.4,64.7c64.2,47.2,102.6,110.8,119.8,188c5.6,25.3,6.9,50.9,5.1,76.6
		c-4.4,63-25.2,120.3-63.4,170.6c-37.1,48.6-84.4,84.7-142.1,105.5c-88.4,31.8-174.5,25.8-257.7-18.4
		c-29.8-15.8-56.8-35.6-79.8-60.2c-34-36.3-57.9-78.6-72.3-126.1c-6.3-20.6-9.6-41.6-11.7-62.9c-4.7-49.1,3-96.3,21.5-141.7
		c18.3-44.9,46.4-83.1,82.8-115.2c47.1-41.6,101.9-67,163.8-76.7C287.6,6.1,302.3,5.7,316.9,4.4z M492.6,477.7
		c-2,0.4-3.1,0.7-4.2,0.7c-20,0-40,0.2-60-0.2c-2.4,0-5.7-2.6-7-4.8c-11.1-19.6-21.9-39.5-32.6-59.3c-2-3.8-4.4-5.3-8.8-5.2
		c-26.1,0.2-52.3,0.1-78.4,0.1c-41.4,0-82.8,0-124.2,0.3c-2.3,0-5.9,1.2-6.8,2.9c-13.1,24-25.9,48.1-38.5,72.3
		c-0.9,1.8-0.4,5.7,1,7.1c7.6,7.7,15.3,15.7,23.8,22.4c51.5,40.5,109.7,60.4,175.5,56.9c41.5-2.2,80.3-13.9,115.9-35.2
		c55.7-33.4,92.2-82.5,112.9-143.4c22-64.7,15.1-127.8-14.6-188.4c-26.2-53.9-68-92.2-122.6-116.7c-53-23.7-107.7-29.9-164.6-16.6
		c-63.8,15-113.9,50.4-152,102.9C79.6,212,65.8,256.1,62.9,303.1C60.5,344,68.5,383.5,85.3,421c1.2,2.8,3,5.3,5,9
		c3.3-5.5,6.2-9.7,8.6-14.2c23.6-44.6,47-89.3,70.5-133.9c22.6-42.7,45.3-85.3,67.8-128c2.2-4.3,5-5.9,9.8-5.8
		c19.6,0.2,39.2,0.3,58.8-0.1c5.8-0.1,8.9,1.8,11.6,6.8c22.2,41.3,44.6,82.6,67,123.8c31.3,57.6,62.7,115.1,94,172.6
		C483.1,459.8,487.7,468.5,492.6,477.7z M277.6,208.3c-24.8,46.8-49,92.4-73.8,139c50.3,0,99.1,0,148.9,0
		C327.6,300.9,303,255.3,277.6,208.3z"/>
	<path class="st0" d="M470.8,166.6c22.4,0.3,41.6,19.4,41.4,41.3c-0.3,22.9-19.7,42.3-42,42.1c-22.7-0.2-42-20.4-41.8-43.8
		C428.4,185.4,448.9,166.3,470.8,166.6z"/>
</g>
</svg>
